<svg xmlns="http://www.w3.org/2000/svg" viewBox="0 0 226.28 307.42"><defs><style>.a1cd8e3f-4708-40e2-95a2-b7449dd022c6{fill:#5653fc;}.b1c0f338-40e1-425a-a814-4cdf27eac6b4{fill:#ef6461;}.fc6762be-4563-412c-8440-f8b814cc7514{opacity:0.6;}.abc40c00-34bf-4592-9a94-98ab5a4b96b0{fill:#fff;}</style></defs><g id="b80a7c4b-d44f-47ee-bfdb-14ae596f9133" data-name="Livello 2"><g id="b0c218cf-f52e-4a79-94fb-7cdde69712be" data-name="Livello 1"><path class="a1cd8e3f-4708-40e2-95a2-b7449dd022c6" d="M207.81,0H0C17.77,97.07,102.79,170.64,205,170.64a210.7,210.7,0,0,0,21.28-1.07V18.47A18.47,18.47,0,0,0,207.81,0Z"/><path class="b1c0f338-40e1-425a-a814-4cdf27eac6b4" d="M226.28,121.27V58.08C106.83,79.8,15.67,182.62,11.9,307.42H73.77C77.35,216.88,141.18,141.84,226.28,121.27Z"/><g class="fc6762be-4563-412c-8440-f8b814cc7514"><path class="abc40c00-34bf-4592-9a94-98ab5a4b96b0" d="M162.38,274.84a52.61,52.61,0,0,1-5.9-4.19q-2.68-2.13-4.57-3.44A21.37,21.37,0,0,0,147.8,265a11.77,11.77,0,0,0-4.52-.91,9.59,9.59,0,0,0-1.23.06l8-37a11.61,11.61,0,0,0-5.53,4.41,12.94,12.94,0,0,0-1.94,7.23,7,7,0,0,0,.37,2.75,4.5,4.5,0,0,1,.37.89,6.49,6.49,0,0,1-4.3-1.21,5,5,0,0,1-1.41-4,10.08,10.08,0,0,1,2.8-6.65,22.21,22.21,0,0,1,15.95-7.24c.49,0,1.21,0,2.13.1l-8.22,38.35a18.08,18.08,0,0,1,3.07,1.1c1,.48,2.32,1.13,3.82,1.95a59.58,59.58,0,0,0,5.93,2.86,13.53,13.53,0,0,0,5.12,1,11.73,11.73,0,0,0,4.49-.86,14,14,0,0,1-1.9,6.14,4.3,4.3,0,0,1-3.66,2.25A9.23,9.23,0,0,1,162.38,274.84Z"/><path class="abc40c00-34bf-4592-9a94-98ab5a4b96b0" d="M161.34,260.66q-2.84-3-2.83-10.09a43.14,43.14,0,0,1,1.89-12.07,28,28,0,0,1,6.09-11.09,13.77,13.77,0,0,1,10.66-4.62,10.81,10.81,0,0,1,6.46,1.77,6.18,6.18,0,0,1,2.46,5.39,6.32,6.32,0,0,1-.91,3.61,3.22,3.22,0,0,1-2.83,1.31,3.74,3.74,0,0,1-3.05-1.39,4.24,4.24,0,0,0,1.71-1.93,6.37,6.37,0,0,0,.75-3,3.54,3.54,0,0,0-.77-2.35,3.13,3.13,0,0,0-2.49-.91c-1.89,0-3.68,1.3-5.39,3.88a33.17,33.17,0,0,0-4.14,9.74,43.78,43.78,0,0,0-1.58,11.33,11.35,11.35,0,0,0,1.39,6.19q1.4,2.15,5,2.14a12.37,12.37,0,0,0,5.82-1.39,13.51,13.51,0,0,0,4.6-3.95l1.23.53a14.09,14.09,0,0,1-4,5.61,17.67,17.67,0,0,1-11.27,4.33C166.18,263.71,163.22,262.69,161.34,260.66Z"/></g></g></g></svg>