<svg xmlns="http://www.w3.org/2000/svg" viewBox="0 0 1292 708"><defs><style>.cls-1{fill:#283b3f;}.cls-2,.cls-3{fill:#fff;}.cls-3{font-size:34.1px;}.cls-3,.cls-6{font-family:PTMono-Regular, PT Mono;}.cls-4{fill:#5653fc;}.cls-5{fill:#ef6461;}.cls-6{font-size:15.27px;fill:#eee5e9;}</style></defs><g id="Livello_2" data-name="Livello 2"><g id="Livello_1-2" data-name="Livello 1"><rect class="cls-1" width="1292" height="708" rx="42.53"/><path class="cls-2" d="M86.8,170.92V86.85h31.38q13.84,0,23.2,5.63a35.8,35.8,0,0,1,14,15.15,47.33,47.33,0,0,1,4.68,21.14q0,12.78-5.21,22.26a36.75,36.75,0,0,1-14.62,14.68q-9.42,5.21-22.08,5.21Zm53.52-42.15a30.49,30.49,0,0,0-2.61-13,20,20,0,0,0-7.58-8.76,21.94,21.94,0,0,0-11.95-3.14h-12v50h12a21.26,21.26,0,0,0,12-3.26,20.83,20.83,0,0,0,7.52-9A30.66,30.66,0,0,0,140.32,128.77Z"/><path class="cls-2" d="M199.75,172.1a36.93,36.93,0,0,1-14.09-2.52,31.27,31.27,0,0,1-10.48-6.84,29.41,29.41,0,0,1-6.57-10,32,32,0,0,1-2.25-11.89,33.2,33.2,0,0,1,4-16.16A30.29,30.29,0,0,1,181.75,113q7.45-4.44,18-4.44t18,4.39a29.18,29.18,0,0,1,11.31,11.63,32.62,32.62,0,0,1,3.85,15.55,28.56,28.56,0,0,1-.18,3.22c-.12,1.05-.22,2-.29,2.74H186.49a12.45,12.45,0,0,0,2.25,6.79,12.68,12.68,0,0,0,5.09,4.15,15.44,15.44,0,0,0,6.39,1.38,16.7,16.7,0,0,0,8.11-2,10.38,10.38,0,0,0,5-5.32l16.11,4.61a25.82,25.82,0,0,1-6.64,8.47,33.66,33.66,0,0,1-10.12,5.8A36.75,36.75,0,0,1,199.75,172.1Zm-13.62-37.65H213a13.88,13.88,0,0,0-2.25-6.56,13.35,13.35,0,0,0-4.74-4.33,14.53,14.53,0,0,0-13,0,12.39,12.39,0,0,0-4.74,4.28A14.44,14.44,0,0,0,186.13,134.45Z"/><path class="cls-2" d="M306.18,171.51a38.7,38.7,0,0,1-15.45-3.14,39.9,39.9,0,0,1-12.84-8.82,41.85,41.85,0,0,1-8.82-13.62,45.81,45.81,0,0,1-3.26-17.64A40.92,40.92,0,0,1,269.07,112,43.26,43.26,0,0,1,278,98.58a40.88,40.88,0,0,1,13.32-9.06,41.73,41.73,0,0,1,16.52-3.26,41.17,41.17,0,0,1,20.48,5,32.27,32.27,0,0,1,13.26,13.37L327,115.51a20.64,20.64,0,0,0-8.23-8.82,22.79,22.79,0,0,0-11.66-3.14,19.42,19.42,0,0,0-8.7,2,20.07,20.07,0,0,0-6.81,5.45,26.59,26.59,0,0,0-4.44,8.11,30.07,30.07,0,0,0-1.6,9.94,29.47,29.47,0,0,0,1.66,10.07,24.33,24.33,0,0,0,4.62,8,20.81,20.81,0,0,0,16,7.16,23.91,23.91,0,0,0,11.6-3,33.43,33.43,0,0,0,10.18-8.82v19.06Q319.57,171.51,306.18,171.51ZM328.32,141h-16.1V127h32.32v43.93H328.32Z"/><path class="cls-2" d="M355.79,101.77V84.49h18.94v17.28Zm0,69.15V108.76h18.94v62.16Z"/><path class="cls-2" d="M417.35,172.1a37,37,0,0,1-14.15-2.51,30.28,30.28,0,0,1-10.41-7,30,30,0,0,1-6.52-10.22,33.42,33.42,0,0,1-2.19-12,32.9,32.9,0,0,1,2.25-12.15A31.17,31.17,0,0,1,392.79,118,29.07,29.07,0,0,1,403.2,111a37.42,37.42,0,0,1,14.15-2.52A36.93,36.93,0,0,1,431.44,111,29.83,29.83,0,0,1,441.86,118a30.82,30.82,0,0,1,6.51,10.17,32.9,32.9,0,0,1,2.25,12.15,33.42,33.42,0,0,1-2.19,12,30.12,30.12,0,0,1-17,17.24A37.12,37.12,0,0,1,417.35,172.1ZM403.5,140.31a17.58,17.58,0,0,0,1.84,8.19,14.35,14.35,0,0,0,4.91,5.6,13.4,13.4,0,0,0,14.15,0,13.9,13.9,0,0,0,4.91-5.54,20,20,0,0,0,0-16.5,14.28,14.28,0,0,0-4.91-5.6,12.53,12.53,0,0,0-7-2.07,12.41,12.41,0,0,0-7,2,14.81,14.81,0,0,0-5,5.59A17.56,17.56,0,0,0,403.5,140.31Z"/><path class="cls-2" d="M499.4,125A33.68,33.68,0,0,0,487,127.17a15.4,15.4,0,0,0-8.05,6.45v37.3H460V109.47h17.29v11.84a27.17,27.17,0,0,1,8.41-9.83,19,19,0,0,1,10.65-3.67h1.89a6,6,0,0,1,1.19.12Z"/><path class="cls-2" d="M531.13,172.1a25.36,25.36,0,0,1-19.95-9.19,32.22,32.22,0,0,1-5.62-10,36.12,36.12,0,0,1-2-12.21A37.23,37.23,0,0,1,505.67,128a31,31,0,0,1,6-10.26,27.07,27.07,0,0,1,20.78-9.2,25.36,25.36,0,0,1,12.31,2.9,22.17,22.17,0,0,1,8.53,8.23V109.47h16.46V167a28.27,28.27,0,0,1-4.56,16.09,29.65,29.65,0,0,1-12.67,10.51,44.91,44.91,0,0,1-18.77,3.7,41,41,0,0,1-17.1-3.26,37.69,37.69,0,0,1-12.5-9.17l10.19-10.3a26,26,0,0,0,19.41,8.64,22.18,22.18,0,0,0,8.47-1.58,14,14,0,0,0,6.22-5,15.38,15.38,0,0,0,2.36-9v-6.16a18.46,18.46,0,0,1-8.23,7.88A25.5,25.5,0,0,1,531.13,172.1Zm6.63-15a12.81,12.81,0,0,0,4-.65,14.59,14.59,0,0,0,3.68-1.78,16.41,16.41,0,0,0,3.07-2.74,12.91,12.91,0,0,0,2.25-3.5V135.32a16.5,16.5,0,0,0-3.43-5.76,17.33,17.33,0,0,0-5-3.81,12.54,12.54,0,0,0-5.69-1.36,11.43,11.43,0,0,0-5.5,1.36,13.85,13.85,0,0,0-4.44,3.81,18.46,18.46,0,0,0-2.9,5.34,19,19,0,0,0-1,6.24,16.82,16.82,0,0,0,1.13,6.3,15.57,15.57,0,0,0,3.13,5,15.17,15.17,0,0,0,4.74,3.39A14,14,0,0,0,537.76,157.06Z"/><path class="cls-2" d="M582.75,101.77V84.49h18.94v17.28Zm0,69.15V108.76h18.94v62.16Z"/><path class="cls-2" d="M613.53,116.69l2.84-14.8h-5.32V84.49h19.41v17.76l-4.62,14.44Z"/><path class="cls-2" d="M661.6,172.1a46.06,46.06,0,0,1-15.45-2.66,35.55,35.55,0,0,1-12.85-7.76l6.63-11.84a46.31,46.31,0,0,0,11,6.22A28.26,28.26,0,0,0,661,158.13a12.39,12.39,0,0,0,5.62-1.06,3.56,3.56,0,0,0,2.07-3.4,3.17,3.17,0,0,0-1.24-2.69,14.5,14.5,0,0,0-3.61-1.8q-2.37-.88-5.92-1.81-7.11-2.44-11.84-4.61a17.68,17.68,0,0,1-7.1-5.36,13.7,13.7,0,0,1-2.37-8.35,18.42,18.42,0,0,1,3.2-10.79,21,21,0,0,1,8.93-7.17,33.69,33.69,0,0,1,13.8-2.57,40.23,40.23,0,0,1,12.55,2,31.81,31.81,0,0,1,11.48,6.87l-7.46,11.72a47,47,0,0,0-9.41-5.33,22.12,22.12,0,0,0-8.11-1.65,13.56,13.56,0,0,0-3.67.46,5.78,5.78,0,0,0-2.66,1.51,4,4,0,0,0-1,2.91,3.88,3.88,0,0,0,1,2.73,7.74,7.74,0,0,0,3.19,1.86q2.19.75,5.39,1.68a121.79,121.79,0,0,1,13,4.53,18.62,18.62,0,0,1,7.7,5.58,14.26,14.26,0,0,1,2.54,8.83q0,9.3-6.86,14.58T661.6,172.1Z"/><path class="cls-2" d="M82,270.13A42.51,42.51,0,0,1,93,241.66,40.69,40.69,0,0,1,106.34,232,41.48,41.48,0,0,1,124,228.34q11.83,0,20.54,5.09a33.71,33.71,0,0,1,13.08,13.26l-15,10.54a16.76,16.76,0,0,0-4.91-7.05,18.35,18.35,0,0,0-6.87-3.55,27.87,27.87,0,0,0-7.28-1,19.74,19.74,0,0,0-16.45,8,26.45,26.45,0,0,0-4.09,8.17,30.47,30.47,0,0,0-1.36,8.88,29.34,29.34,0,0,0,1.6,9.71,26.25,26.25,0,0,0,4.5,8.17,21.37,21.37,0,0,0,7,5.62,19.91,19.91,0,0,0,9.18,2.08,24.56,24.56,0,0,0,7.22-1.13,19.49,19.49,0,0,0,6.81-3.73,16.35,16.35,0,0,0,4.79-6.87l16,9.48a26,26,0,0,1-8.29,10.53,42.06,42.06,0,0,1-12.79,6.69,45.68,45.68,0,0,1-14.21,2.31,37.24,37.24,0,0,1-16.69-3.73,42.84,42.84,0,0,1-13.14-9.94,45.57,45.57,0,0,1-8.58-14A43.09,43.09,0,0,1,82,270.13Z"/><path class="cls-2" d="M162.81,294.63A17.32,17.32,0,0,1,166.24,284a22.86,22.86,0,0,1,9.47-7.25,34.34,34.34,0,0,1,13.86-2.63,42.14,42.14,0,0,1,7.46.65,28.51,28.51,0,0,1,6.39,1.83v-2.71q0-5-3.08-7.62T191,263.74a26.88,26.88,0,0,0-9.71,1.77,53.38,53.38,0,0,0-9.71,5.09l-5.68-12.07a47.92,47.92,0,0,1,12.84-6,50.34,50.34,0,0,1,14.15-2q14,0,21.73,6.51t7.75,19.08V292a6.67,6.67,0,0,0,.89,3.95,3.81,3.81,0,0,0,3,1.28V313a29.36,29.36,0,0,1-4.38.77c-1.35.12-2.53.18-3.55.18q-5.34,0-8.05-2.13a9.88,9.88,0,0,1-3.56-5.81l-.47-2.72a26.69,26.69,0,0,1-9.77,8.11,27.29,27.29,0,0,1-12,2.78,24,24,0,0,1-11.06-2.51,19.61,19.61,0,0,1-7.76-7A18.34,18.34,0,0,1,162.81,294.63Zm37.65,2.25a9.3,9.3,0,0,0,2.13-2.36,4.58,4.58,0,0,0,.83-2.35v-5.41a28.07,28.07,0,0,0-5.33-1.43,32.32,32.32,0,0,0-5.45-.52,15,15,0,0,0-8.52,2.3,6.84,6.84,0,0,0-3.43,5.86,6.61,6.61,0,0,0,1.18,3.73,7.75,7.75,0,0,0,3.26,2.76,11.44,11.44,0,0,0,4.91,1,17.41,17.41,0,0,0,5.68-1A14.48,14.48,0,0,0,200.46,296.88Z"/><path class="cls-2" d="M275.52,267.05a33.68,33.68,0,0,0-12.43,2.19,15.44,15.44,0,0,0-8,6.45V313H236.1V251.54h17.28v11.84a27,27,0,0,1,8.41-9.82,19.06,19.06,0,0,1,10.65-3.68h1.9a6.84,6.84,0,0,1,1.18.12Z"/><path class="cls-2" d="M279.55,282.27a35.75,35.75,0,0,1,3.55-16.07,29.13,29.13,0,0,1,9.71-11.4,24.59,24.59,0,0,1,14.2-4.2,23.25,23.25,0,0,1,11.84,3.07,20.52,20.52,0,0,1,8,8.17V226.56h19v65.36a6.82,6.82,0,0,0,.89,4,4.07,4.07,0,0,0,3.25,1.3V313a47.18,47.18,0,0,1-8.17.95,13.31,13.31,0,0,1-7.93-2.13,9.09,9.09,0,0,1-3.67-5.92l-.24-3.2a21.74,21.74,0,0,1-9.11,8.64,26.34,26.34,0,0,1-12,2.84,28.78,28.78,0,0,1-11.78-2.39,28,28,0,0,1-9.35-6.72,30.09,30.09,0,0,1-6.1-10.11A36.48,36.48,0,0,1,279.55,282.27Zm47.47,7.5v-12.7a16.15,16.15,0,0,0-3.37-5.42,18.64,18.64,0,0,0-5-3.75,11.92,11.92,0,0,0-5.51-1.44,12.07,12.07,0,0,0-5.8,1.39,14.63,14.63,0,0,0-4.44,3.57,16.15,16.15,0,0,0-2.84,5.08,18.8,18.8,0,0,0-1,6.23,16.06,16.06,0,0,0,1.13,6.11,15.32,15.32,0,0,0,3.08,4.85A14.29,14.29,0,0,0,308,297a14.76,14.76,0,0,0,6,1.21,13.22,13.22,0,0,0,3.91-.58,13.45,13.45,0,0,0,3.61-1.73,18.92,18.92,0,0,0,3.14-2.65A13.65,13.65,0,0,0,327,289.77Z"/><text class="cls-3" transform="translate(114.16 500.05)">8Cle Pnbm KUsM vXQc G3qg</text><path class="cls-2" d="M135.76,649.35V633L129,645.41H126.9L120.17,633v16.31h-3.65V626.46h3.87l7.57,14,7.58-14h3.87v22.89Z"/><path class="cls-2" d="M142.69,644.46a4.48,4.48,0,0,1,.92-2.79,5.79,5.79,0,0,1,2.55-1.85,9.8,9.8,0,0,1,3.72-.66,15,15,0,0,1,2.29.18,11.65,11.65,0,0,1,2.09.5v-1.06a3.54,3.54,0,0,0-1.06-2.73,4.38,4.38,0,0,0-3.06-1,7.45,7.45,0,0,0-2.68.48,13.69,13.69,0,0,0-2.67,1.45l-1.16-2.41a13.06,13.06,0,0,1,3.32-1.66,11.17,11.17,0,0,1,3.57-.57,7.58,7.58,0,0,1,5.32,1.77,6.45,6.45,0,0,1,1.93,5v6.21a1.28,1.28,0,0,0,.23.86,1,1,0,0,0,.74.29v2.84c-.32.06-.61.1-.85.12l-.63.07a2.59,2.59,0,0,1-1.74-.58,2.15,2.15,0,0,1-.68-1.29l-.09-1a6.9,6.9,0,0,1-2.79,2.19,8.37,8.37,0,0,1-3.47.78,6.37,6.37,0,0,1-3-.69,5.28,5.28,0,0,1-2.07-1.87A4.9,4.9,0,0,1,142.69,644.46Zm10.73,1a6.7,6.7,0,0,0,.6-.85,1.55,1.55,0,0,0,.24-.76V642a9.66,9.66,0,0,0-1.9-.52,10.92,10.92,0,0,0-1.93-.18,6,6,0,0,0-3.18.76,2.38,2.38,0,0,0-1.21,2.09,2.56,2.56,0,0,0,.41,1.38,3,3,0,0,0,1.16,1.08,3.64,3.64,0,0,0,1.85.43,5.78,5.78,0,0,0,2.26-.46A5.55,5.55,0,0,0,153.42,645.5Z"/><path class="cls-2" d="M171.53,635.55a7.46,7.46,0,0,0-3.62.94,5.05,5.05,0,0,0-2.27,2.54v10.32h-3.55V632.62h3.26v3.61a8,8,0,0,1,2.32-2.76,5.52,5.52,0,0,1,3-1.14h.57a1.48,1.48,0,0,1,.33,0Z"/><path class="cls-2" d="M183.52,648.54c-.28.13-.65.29-1.13.47a10.35,10.35,0,0,1-1.54.46,7.67,7.67,0,0,1-1.74.2,5.21,5.21,0,0,1-2-.4,3.32,3.32,0,0,1-1.5-1.24,3.71,3.71,0,0,1-.57-2.15V635.36h-2.25v-2.74H175v-5.54h3.55v5.54h3.67v2.74h-3.67v9.36a1.77,1.77,0,0,0,.56,1.28,1.93,1.93,0,0,0,1.24.41,3.92,3.92,0,0,0,1.44-.27c.46-.18.78-.32.95-.4Z"/><path class="cls-2" d="M184.75,644.46a4.42,4.42,0,0,1,.92-2.79,5.82,5.82,0,0,1,2.54-1.85,9.87,9.87,0,0,1,3.72-.66,14.82,14.82,0,0,1,2.29.18,11.77,11.77,0,0,1,2.1.5v-1.06a3.55,3.55,0,0,0-1.07-2.73,4.38,4.38,0,0,0-3.06-1,7.4,7.4,0,0,0-2.67.48,14,14,0,0,0-2.68,1.45l-1.16-2.41a13.23,13.23,0,0,1,3.32-1.66,11.23,11.23,0,0,1,3.58-.57,7.6,7.6,0,0,1,5.32,1.77,6.49,6.49,0,0,1,1.93,5v6.21a1.29,1.29,0,0,0,.22.86,1.06,1.06,0,0,0,.75.29v2.84c-.33.06-.61.1-.86.12l-.63.07a2.59,2.59,0,0,1-1.74-.58,2.14,2.14,0,0,1-.67-1.29l-.1-1a6.9,6.9,0,0,1-2.79,2.19,8.32,8.32,0,0,1-3.46.78,6.38,6.38,0,0,1-3-.69,5.19,5.19,0,0,1-2.06-1.87A4.81,4.81,0,0,1,184.75,644.46Zm10.73,1a7.74,7.74,0,0,0,.59-.85,1.48,1.48,0,0,0,.25-.76V642a10.06,10.06,0,0,0-1.9-.52,11,11,0,0,0-1.94-.18,5.92,5.92,0,0,0-3.17.76,2.36,2.36,0,0,0-1.21,2.09,2.54,2.54,0,0,0,.4,1.38,3.11,3.11,0,0,0,1.16,1.08,3.67,3.67,0,0,0,1.85.43,5.74,5.74,0,0,0,2.26-.46A5.49,5.49,0,0,0,195.48,645.5Z"/><path class="cls-2" d="M226.09,631.85a3.81,3.81,0,0,0-.92-.76,8.53,8.53,0,0,0-1.45-.74,11.88,11.88,0,0,0-1.8-.58,8.5,8.5,0,0,0-2-.24,5.51,5.51,0,0,0-3.36.83,2.75,2.75,0,0,0-1.09,2.31,2.39,2.39,0,0,0,.61,1.73,4.32,4.32,0,0,0,1.89,1c.84.27,1.89.55,3.14.85a22.28,22.28,0,0,1,4,1.32,6.36,6.36,0,0,1,2.61,2,5.5,5.5,0,0,1,.92,3.33,6.28,6.28,0,0,1-.66,3,5.56,5.56,0,0,1-1.82,2,8.14,8.14,0,0,1-2.68,1.17,13,13,0,0,1-3.25.39,16.31,16.31,0,0,1-3.4-.37,15.81,15.81,0,0,1-3.22-1.07,14.57,14.57,0,0,1-2.85-1.69l1.67-3.09a6.33,6.33,0,0,0,1.19.92,14.6,14.6,0,0,0,1.86.95,14.17,14.17,0,0,0,2.28.75,10.25,10.25,0,0,0,2.53.31,6.08,6.08,0,0,0,3.31-.75,2.46,2.46,0,0,0,1.14-2.19,2.31,2.31,0,0,0-.76-1.81,6.05,6.05,0,0,0-2.16-1.17c-.93-.32-2-.64-3.36-1a19.73,19.73,0,0,1-3.77-1.31,5.52,5.52,0,0,1-2.26-1.86,5.27,5.27,0,0,1-.74-2.92,6.53,6.53,0,0,1,1.08-3.81,6.6,6.6,0,0,1,3-2.34,11.05,11.05,0,0,1,4.22-.79,12.82,12.82,0,0,1,2.95.34,13.41,13.41,0,0,1,2.61.92,11.42,11.42,0,0,1,2.14,1.32Z"/><path class="cls-2" d="M231.8,629.72v-3.9h3.54v3.9Zm0,19.63V632.49h3.54v16.86Z"/><path class="cls-2" d="M246.27,649.67a7,7,0,0,1-3.13-.69,7.52,7.52,0,0,1-2.43-1.89,8.63,8.63,0,0,1-1.57-2.74,10.29,10.29,0,0,1,0-6.64,8.78,8.78,0,0,1,1.61-2.79,7.55,7.55,0,0,1,2.47-1.88,7.2,7.2,0,0,1,3.15-.68,6.68,6.68,0,0,1,3.57.94,7.88,7.88,0,0,1,2.53,2.48v-3.16h3.12V648.9a7,7,0,0,1-1.18,4.14,7.4,7.4,0,0,1-3.2,2.59,11.1,11.1,0,0,1-4.55.9,10,10,0,0,1-4.65-1,9.43,9.43,0,0,1-3.14-2.65l2-1.87a6.81,6.81,0,0,0,2.55,2.07,7.67,7.67,0,0,0,3.28.71,6.92,6.92,0,0,0,2.68-.52,4.44,4.44,0,0,0,2-1.58,4.66,4.66,0,0,0,.74-2.71v-2.54a6.35,6.35,0,0,1-2.49,2.33A6.84,6.84,0,0,1,246.27,649.67Zm1.16-2.87a4.25,4.25,0,0,0,1.54-.29,6,6,0,0,0,1.37-.74,4.94,4.94,0,0,0,1.08-1.06,4.21,4.21,0,0,0,.65-1.26V639a5.86,5.86,0,0,0-1.18-1.9,6,6,0,0,0-1.72-1.27,4.58,4.58,0,0,0-2-.47,4.29,4.29,0,0,0-2.08.5,5,5,0,0,0-1.56,1.32,6.18,6.18,0,0,0-1,1.86,6.34,6.34,0,0,0-.36,2.12,5.94,5.94,0,0,0,1.52,3.95,5,5,0,0,0,3.74,1.66Z"/><path class="cls-2" d="M275,649.35h-3.51V640a5.87,5.87,0,0,0-.78-3.42,2.6,2.6,0,0,0-2.25-1.07,4.42,4.42,0,0,0-2.05.52,6.36,6.36,0,0,0-1.8,1.38,5.52,5.52,0,0,0-1.18,2v9.93h-3.54V632.62h3.22V636a6.81,6.81,0,0,1,1.67-1.92,8.17,8.17,0,0,1,2.36-1.24,8.6,8.6,0,0,1,2.8-.45,5.1,5.1,0,0,1,2.51.55,3.82,3.82,0,0,1,1.55,1.48,6.57,6.57,0,0,1,.77,2.17,14.46,14.46,0,0,1,.23,2.6Z"/><path class="cls-2" d="M286.68,649.67a8.83,8.83,0,0,1-3.58-.69,8.18,8.18,0,0,1-2.72-1.9,8.55,8.55,0,0,1-1.76-2.76,8.76,8.76,0,0,1-.61-3.27,8.93,8.93,0,0,1,.61-3.34,8.55,8.55,0,0,1,1.76-2.76,8.07,8.07,0,0,1,2.74-1.9,8.87,8.87,0,0,1,3.56-.69,8.73,8.73,0,0,1,3.56.69,8.49,8.49,0,0,1,4.49,4.66,8.94,8.94,0,0,1,.62,3.34,8.76,8.76,0,0,1-.62,3.27,8.52,8.52,0,0,1-1.75,2.76,8.27,8.27,0,0,1-2.74,1.9A8.9,8.9,0,0,1,286.68,649.67Zm-5-8.65a6.07,6.07,0,0,0,.68,2.89,5.36,5.36,0,0,0,1.8,2,4.49,4.49,0,0,0,2.51.73,4.61,4.61,0,0,0,2.58-.73,5.33,5.33,0,0,0,1.81-2,6.48,6.48,0,0,0,0-5.74,5.24,5.24,0,0,0-1.82-2,4.69,4.69,0,0,0-2.53-.73,4.5,4.5,0,0,0-2.55.76,5.57,5.57,0,0,0-1.8,2A5.92,5.92,0,0,0,281.65,641Z"/><path class="cls-2" d="M308,635.55a7.47,7.47,0,0,0-3.63.94,5.1,5.1,0,0,0-2.27,2.54v10.32H298.5V632.62h3.26v3.61a8,8,0,0,1,2.32-2.76,5.52,5.52,0,0,1,3-1.14h.57a1.58,1.58,0,0,1,.34,0Z"/><path class="cls-2" d="M317.9,649.67a8.81,8.81,0,0,1-3.57-.69,8.53,8.53,0,0,1-4.53-4.64,8.59,8.59,0,0,1-.63-3.28,8.83,8.83,0,0,1,1.1-4.36,8.31,8.31,0,0,1,3.07-3.16,8.85,8.85,0,0,1,4.56-1.18,8.44,8.44,0,0,1,8.64,8.52q0,.39,0,.72a4.33,4.33,0,0,1-.07.53H312.91a5.94,5.94,0,0,0,.87,2.59,5.06,5.06,0,0,0,1.84,1.72,4.89,4.89,0,0,0,2.38.62,5.49,5.49,0,0,0,2.72-.71,3.67,3.67,0,0,0,1.73-1.87l3,.87a6.5,6.5,0,0,1-1.68,2.21,8.48,8.48,0,0,1-2.63,1.54A9.05,9.05,0,0,1,317.9,649.67Zm-5.06-9.86H323a5.57,5.57,0,0,0-.82-2.53,5,5,0,0,0-1.82-1.69,5.07,5.07,0,0,0-2.45-.62,5,5,0,0,0-2.47.62,5.08,5.08,0,0,0-1.82,1.69A5.23,5.23,0,0,0,312.84,639.81Z"/><path class="cls-4" d="M1249.47,0H770.87C811.81,223.56,1007.61,393,1243,393a486.7,486.7,0,0,0,49-2.47v-348A42.53,42.53,0,0,0,1249.47,0Z"/><path class="cls-5" d="M1292,279.28V133.75c-275.08,50-485,286.83-493.71,574.25H940.78C949,499.49,1096,326.66,1292,279.28Z"/><text class="cls-6" transform="translate(294.04 561.7)">VALIDA<tspan x="0" y="18.32">FINO A</tspan></text><text class="cls-3" transform="translate(363.73 577.84)">09/21</text></g></g></svg>